<svg width="200" height="76" viewBox="0 0 200 76" fill="none" xmlns="http://www.w3.org/2000/svg">
<path d="M24.1388 0L40.1653 41.3525C40.8248 42.9353 41.5283 44.0345 42.2758 44.6501C43.0672 45.2217 43.7927 45.5295 44.4523 45.5735V46.8925C43.3091 46.8046 41.9241 46.7606 40.2972 46.7606C38.7144 46.7166 37.0875 46.6947 35.4167 46.6947C33.4821 46.6947 31.6794 46.7166 30.0086 46.7606C28.3378 46.7606 26.9747 46.8046 25.9195 46.8925V45.5735C28.1619 45.4855 29.5909 45.1118 30.2064 44.4523C30.822 43.7488 30.6901 42.2758 29.8107 40.0334L18.203 8.70578L19.3902 7.25482L8.83769 34.6253C8.00229 36.8237 7.49665 38.6264 7.32077 40.0334C7.1449 41.4404 7.25482 42.5396 7.65054 43.3311C8.04625 44.1225 8.70578 44.6941 9.62912 45.0458C10.5525 45.3536 11.6956 45.5295 13.0587 45.5735V46.8925C11.6517 46.8046 10.2887 46.7606 8.96959 46.7606C7.65054 46.7166 6.33148 46.6947 5.01242 46.6947C4.04511 46.6947 3.12177 46.7166 2.2424 46.7606C1.407 46.7606 0.659529 46.8046 0 46.8925V45.5735C0.967309 45.3536 1.91263 44.782 2.83597 43.8587C3.80328 42.9353 4.72662 41.3305 5.606 39.0441L20.7092 0C21.2368 0.043968 21.8084 0.065952 22.424 0.065952C23.0395 0.065952 23.6111 0.043968 24.1388 0ZM29.8767 27.8981V29.2171H10.2227L10.8822 27.8981H29.8767Z" fill="#A60064"/>
<path d="M54.6864 28.873V30.1921C53.8071 30.4999 52.8397 31.2034 51.7845 32.3026C50.7292 33.3578 49.7839 35.0286 48.9485 37.315L34.5048 75.7655C34.241 75.7655 33.9552 75.7436 33.6474 75.6996C33.3836 75.6996 33.0978 75.6996 32.7901 75.6996C32.4823 75.6996 32.1745 75.6996 31.8667 75.6996C31.6029 75.7436 31.3391 75.7655 31.0753 75.7655L14.5211 34.4131C13.8616 32.7862 13.1361 31.687 12.3447 31.1154C11.5972 30.5438 10.8937 30.2361 10.2342 30.1921V28.873C11.3774 28.917 12.7624 28.961 14.3892 29.0049C16.06 29.0489 17.6868 29.0709 19.2697 29.0709C21.2043 29.0709 23.007 29.0489 24.6779 29.0049C26.3926 28.961 27.7557 28.917 28.7669 28.873V30.1921C27.316 30.2361 26.1948 30.4119 25.4033 30.7197C24.6559 30.9835 24.2382 31.5111 24.1502 32.3026C24.0623 33.05 24.3041 34.1932 24.8757 35.7321L37.011 66.9278L35.7579 68.4448L45.6509 42.0636C46.7501 39.1177 47.2997 36.7874 47.2997 35.0726C47.2997 33.3578 46.816 32.1267 45.8487 31.3792C44.8814 30.6318 43.4964 30.2361 41.6937 30.1921V28.873C43.1447 28.917 44.5077 28.961 45.7828 29.0049C47.1018 29.0489 48.3989 29.0709 49.674 29.0709C50.7292 29.0709 51.6526 29.0489 52.444 29.0049C53.2794 28.961 54.0269 28.917 54.6864 28.873Z" fill="black"/>
<path d="M70.1372 23.6136L74.1238 33.9002C74.2879 34.2939 74.4629 34.5673 74.6488 34.7205C74.8457 34.8626 75.0261 34.9392 75.1902 34.9501V35.2783C74.9058 35.2564 74.5613 35.2454 74.1566 35.2454C73.7629 35.2345 73.3582 35.229 72.9426 35.229C72.4613 35.229 72.0129 35.2345 71.5973 35.2454C71.1817 35.2454 70.8426 35.2564 70.5801 35.2783V34.9501C71.1379 34.9283 71.4934 34.8353 71.6465 34.6712C71.7997 34.4962 71.7668 34.1298 71.5481 33.572L68.6606 25.7792L68.956 25.4183L66.331 32.2268C66.1232 32.7736 65.9974 33.222 65.9537 33.572C65.9099 33.922 65.9373 34.1955 66.0357 34.3923C66.1341 34.5892 66.2982 34.7314 66.5279 34.8189C66.7576 34.8955 67.0419 34.9392 67.381 34.9501V35.2783C67.031 35.2564 66.6919 35.2454 66.3638 35.2454C66.0357 35.2345 65.7076 35.229 65.3795 35.229C65.1388 35.229 64.9092 35.2345 64.6904 35.2454C64.4826 35.2454 64.2967 35.2564 64.1326 35.2783V34.9501C64.3732 34.8955 64.6084 34.7533 64.8381 34.5236C65.0787 34.2939 65.3084 33.8947 65.5271 33.326L69.2841 23.6136C69.4153 23.6246 69.5575 23.6301 69.7106 23.6301C69.8637 23.6301 70.0059 23.6246 70.1372 23.6136ZM71.5645 30.5534V30.8815H66.6755L66.8396 30.5534H71.5645Z" fill="black"/>
<path d="M86.0062 23.6629V23.991C85.6562 24.0238 85.3882 24.1058 85.2023 24.2371C85.0273 24.3574 84.907 24.5543 84.8414 24.8277C84.7758 25.0902 84.7429 25.4675 84.7429 25.9597V30.5041C84.7429 31.2369 84.6937 31.8932 84.5953 32.4728C84.5078 33.0525 84.3328 33.5556 84.0703 33.9822C83.7969 34.4416 83.3867 34.8134 82.8399 35.0978C82.3039 35.3712 81.6477 35.5079 80.8711 35.5079C80.3462 35.5079 79.8266 35.4478 79.3126 35.3275C78.8095 35.2072 78.3665 34.983 77.9837 34.6548C77.6446 34.3705 77.3767 34.0478 77.1798 33.6869C76.9939 33.326 76.8681 32.8939 76.8025 32.3908C76.7368 31.8768 76.704 31.2643 76.704 30.5534V25.4019C76.704 24.9972 76.6712 24.7019 76.6056 24.516C76.5509 24.3191 76.4306 24.1879 76.2447 24.1222C76.0697 24.0457 75.8017 24.0019 75.4408 23.991V23.6629C75.7142 23.6738 76.0642 23.6847 76.4908 23.6957C76.9173 23.7066 77.3767 23.7121 77.8689 23.7121C78.3173 23.7121 78.7602 23.7066 79.1977 23.6957C79.6352 23.6847 79.9962 23.6738 80.2805 23.6629V23.991C79.9087 24.0019 79.6243 24.0457 79.4274 24.1222C79.2415 24.1879 79.1157 24.3191 79.0501 24.516C78.9845 24.7019 78.9517 24.9972 78.9517 25.4019V31.3408C78.9517 31.8877 78.9845 32.3853 79.0501 32.8338C79.1266 33.2713 79.247 33.6486 79.411 33.9658C79.586 34.283 79.8266 34.5236 80.1329 34.6876C80.4501 34.8517 80.8493 34.9337 81.3305 34.9337C82.1289 34.9337 82.7469 34.7533 83.1844 34.3923C83.6219 34.0314 83.9281 33.5283 84.1031 32.883C84.2781 32.2377 84.3656 31.5049 84.3656 30.6846V26.0909C84.3656 25.555 84.3273 25.1449 84.2508 24.8605C84.1742 24.5761 84.0211 24.3683 83.7914 24.2371C83.5727 24.1058 83.2445 24.0238 82.807 23.991V23.6629C83.0148 23.6738 83.2828 23.6847 83.6109 23.6957C83.95 23.7066 84.2617 23.7121 84.5461 23.7121C84.8195 23.7121 85.0875 23.7066 85.35 23.6957C85.6234 23.6847 85.8421 23.6738 86.0062 23.6629Z" fill="black"/>
<path d="M91.8065 23.6629C93.9064 23.6629 95.4595 24.155 96.4657 25.1394C97.4829 26.1128 97.9915 27.5128 97.9915 29.3393C97.9915 30.5315 97.7399 31.576 97.2368 32.4728C96.7447 33.3588 96.0283 34.0478 95.0876 34.54C94.147 35.0322 93.0041 35.2783 91.6588 35.2783C91.4948 35.2783 91.2705 35.2728 90.9862 35.2619C90.7127 35.2509 90.4229 35.2454 90.1167 35.2454C89.8213 35.2345 89.5479 35.229 89.2964 35.229C88.8479 35.229 88.4104 35.2345 87.9839 35.2454C87.5573 35.2454 87.2073 35.2564 86.9339 35.2783V34.9501C87.2948 34.9283 87.5628 34.8845 87.7378 34.8189C87.9237 34.7533 88.044 34.622 88.0987 34.4252C88.1643 34.2283 88.1972 33.933 88.1972 33.5392V25.4019C88.1972 24.9972 88.1643 24.7019 88.0987 24.516C88.044 24.3191 87.9237 24.1879 87.7378 24.1222C87.5628 24.0457 87.2948 24.0019 86.9339 23.991V23.6629C87.2073 23.6738 87.5573 23.6902 87.9839 23.7121C88.4104 23.723 88.837 23.723 89.2635 23.7121C89.6573 23.7011 90.1003 23.6902 90.5924 23.6793C91.0846 23.6683 91.4893 23.6629 91.8065 23.6629ZM91.6588 23.9582C91.1557 23.9582 90.8276 24.0511 90.6745 24.2371C90.5213 24.423 90.4448 24.8003 90.4448 25.3691V33.572C90.4448 34.1408 90.5213 34.5181 90.6745 34.7041C90.8385 34.89 91.1721 34.983 91.6752 34.983C92.6924 34.983 93.4853 34.7697 94.0541 34.3431C94.6338 33.9056 95.0384 33.2713 95.2681 32.44C95.5087 31.6088 95.629 30.5971 95.629 29.4049C95.629 28.18 95.4978 27.1683 95.2353 26.3698C94.9837 25.5605 94.5681 24.9589 93.9884 24.5652C93.4088 24.1605 92.6322 23.9582 91.6588 23.9582Z" fill="black"/>
<path d="M103.996 23.6629V23.991C103.646 24.0019 103.378 24.0457 103.193 24.1222C103.018 24.1879 102.897 24.3191 102.832 24.516C102.766 24.7019 102.733 24.9972 102.733 25.4019V33.5392C102.733 33.933 102.766 34.2283 102.832 34.4252C102.897 34.622 103.018 34.7533 103.193 34.8189C103.378 34.8845 103.646 34.9283 103.996 34.9501V35.2783C103.723 35.2564 103.373 35.2454 102.946 35.2454C102.52 35.2345 102.088 35.229 101.65 35.229C101.158 35.229 100.699 35.2345 100.272 35.2454C99.8457 35.2454 99.4958 35.2564 99.2223 35.2783V34.9501C99.5833 34.9283 99.8512 34.8845 100.026 34.8189C100.212 34.7533 100.332 34.622 100.387 34.4252C100.453 34.2283 100.486 33.933 100.486 33.5392V25.4019C100.486 24.9972 100.453 24.7019 100.387 24.516C100.332 24.3191 100.212 24.1879 100.026 24.1222C99.8512 24.0457 99.5833 24.0019 99.2223 23.991V23.6629C99.4958 23.6738 99.8457 23.6847 100.272 23.6957C100.699 23.7066 101.158 23.7121 101.65 23.7121C102.088 23.7121 102.52 23.7066 102.946 23.6957C103.373 23.6847 103.723 23.6738 103.996 23.6629Z" fill="black"/>
<path d="M114.878 23.6629C114.834 24.166 114.801 24.6582 114.779 25.1394C114.768 25.6097 114.763 25.9706 114.763 26.2222C114.763 26.4737 114.768 26.7089 114.779 26.9276C114.79 27.1464 114.801 27.3378 114.812 27.5019H114.435C114.282 26.6269 114.096 25.9433 113.877 25.4511C113.658 24.948 113.368 24.5871 113.008 24.3683C112.658 24.1496 112.193 24.0402 111.613 24.0402H111.088V33.3916C111.088 33.84 111.126 34.1736 111.203 34.3923C111.29 34.6111 111.46 34.7587 111.711 34.8353C111.963 34.9009 112.329 34.9392 112.811 34.9501V35.2783C112.483 35.2564 112.056 35.2454 111.531 35.2454C111.006 35.2345 110.47 35.229 109.923 35.229C109.354 35.229 108.819 35.2345 108.315 35.2454C107.823 35.2454 107.424 35.2564 107.118 35.2783V34.9501C107.588 34.9392 107.949 34.9009 108.201 34.8353C108.452 34.7587 108.622 34.6111 108.709 34.3923C108.797 34.1736 108.84 33.84 108.84 33.3916V24.0402H108.299C107.73 24.0402 107.265 24.1496 106.905 24.3683C106.544 24.5871 106.254 24.948 106.035 25.4511C105.816 25.9433 105.636 26.6269 105.494 27.5019H105.116C105.138 27.3378 105.149 27.1464 105.149 26.9276C105.16 26.7089 105.165 26.4737 105.165 26.2222C105.165 25.9706 105.155 25.6097 105.133 25.1394C105.122 24.6582 105.094 24.166 105.051 23.6629C105.532 23.6738 106.062 23.6847 106.642 23.6957C107.222 23.7066 107.801 23.7121 108.381 23.7121C108.961 23.7121 109.491 23.7121 109.972 23.7121C110.443 23.7121 110.968 23.7121 111.547 23.7121C112.127 23.7121 112.707 23.7066 113.286 23.6957C113.866 23.6847 114.397 23.6738 114.878 23.6629Z" fill="black"/>
<path d="M125.791 30.2416V31.4557H119.868V30.2416H125.791Z" fill="black"/>
<path d="M141.039 23.6629V23.991C140.821 24.0675 140.58 24.2425 140.318 24.516C140.055 24.7785 139.82 25.1941 139.612 25.7628L136.019 35.3275C135.954 35.3275 135.882 35.322 135.806 35.3111C135.74 35.3111 135.669 35.3111 135.593 35.3111C135.516 35.3111 135.439 35.3111 135.363 35.3111C135.297 35.322 135.232 35.3275 135.166 35.3275L131.048 25.041C130.884 24.6363 130.704 24.3629 130.507 24.2207C130.321 24.0785 130.146 24.0019 129.982 23.991V23.6629C130.266 23.6738 130.611 23.6847 131.015 23.6957C131.431 23.7066 131.836 23.7121 132.229 23.7121C132.711 23.7121 133.159 23.7066 133.575 23.6957C134.001 23.6847 134.34 23.6738 134.592 23.6629V23.991C134.231 24.0019 133.952 24.0457 133.755 24.1222C133.569 24.1879 133.465 24.3191 133.443 24.516C133.422 24.7019 133.482 24.9863 133.624 25.3691L136.643 33.1291L136.331 33.5064L138.792 26.944C139.065 26.2113 139.202 25.6316 139.202 25.205C139.202 24.7785 139.082 24.4722 138.841 24.2863C138.6 24.1004 138.256 24.0019 137.807 23.991V23.6629C138.168 23.6738 138.507 23.6847 138.825 23.6957C139.153 23.7066 139.475 23.7121 139.793 23.7121C140.055 23.7121 140.285 23.7066 140.482 23.6957C140.689 23.6847 140.875 23.6738 141.039 23.6629Z" fill="black"/>
<path d="M145.518 23.6136L149.505 33.9002C149.669 34.2939 149.844 34.5673 150.03 34.7205C150.226 34.8626 150.407 34.9392 150.571 34.9501V35.2783C150.287 35.2564 149.942 35.2454 149.537 35.2454C149.144 35.2345 148.739 35.229 148.323 35.229C147.842 35.229 147.394 35.2345 146.978 35.2454C146.562 35.2454 146.223 35.2564 145.961 35.2783V34.9501C146.519 34.9283 146.874 34.8353 147.027 34.6712C147.18 34.4962 147.148 34.1298 146.929 33.572L144.041 25.7792L144.337 25.4183L141.712 32.2268C141.504 32.7736 141.378 33.222 141.334 33.572C141.291 33.922 141.318 34.1955 141.416 34.3923C141.515 34.5892 141.679 34.7314 141.909 34.8189C142.138 34.8955 142.423 34.9392 142.762 34.9501V35.2783C142.412 35.2564 142.073 35.2454 141.745 35.2454C141.416 35.2345 141.088 35.229 140.76 35.229C140.52 35.229 140.29 35.2345 140.071 35.2454C139.863 35.2454 139.677 35.2564 139.513 35.2783V34.9501C139.754 34.8955 139.989 34.7533 140.219 34.5236C140.459 34.2939 140.689 33.8947 140.908 33.326L144.665 23.6136C144.796 23.6246 144.938 23.6301 145.091 23.6301C145.244 23.6301 145.387 23.6246 145.518 23.6136ZM146.945 30.5534V30.8815H142.056L142.22 30.5534H146.945Z" fill="black"/>
<path d="M150.747 23.6629C151.021 23.6738 151.371 23.6847 151.797 23.6957C152.224 23.7066 152.65 23.7121 153.077 23.7121C153.613 23.7121 154.121 23.7066 154.603 23.6957C155.084 23.6847 155.423 23.6793 155.62 23.6793C156.604 23.6793 157.413 23.7996 158.048 24.0402C158.693 24.2699 159.174 24.598 159.492 25.0246C159.809 25.4511 159.967 25.9542 159.967 26.5339C159.967 26.8948 159.896 27.2667 159.754 27.6495C159.612 28.0214 159.366 28.3659 159.016 28.6831C158.666 29.0003 158.185 29.2628 157.572 29.4706C156.971 29.6674 156.199 29.7659 155.259 29.7659H153.684V29.4377H155.095C155.784 29.4377 156.309 29.3174 156.67 29.0768C157.042 28.8253 157.288 28.4971 157.408 28.0925C157.539 27.6768 157.605 27.2175 157.605 26.7144C157.605 25.8503 157.435 25.1831 157.096 24.7128C156.757 24.2316 156.172 23.991 155.341 23.991C154.892 23.991 154.597 24.084 154.455 24.2699C154.324 24.4558 154.258 24.8332 154.258 25.4019V33.5392C154.258 33.933 154.291 34.2283 154.356 34.4252C154.422 34.622 154.542 34.7533 154.717 34.8189C154.903 34.8845 155.171 34.9283 155.521 34.9501V35.2783C155.248 35.2564 154.898 35.2454 154.471 35.2454C154.045 35.2345 153.613 35.229 153.175 35.229C152.683 35.229 152.224 35.2345 151.797 35.2454C151.371 35.2454 151.021 35.2564 150.747 35.2783V34.9501C151.108 34.9283 151.376 34.8845 151.551 34.8189C151.737 34.7533 151.857 34.622 151.912 34.4252C151.978 34.2283 152.01 33.933 152.01 33.5392V25.4019C152.01 24.9972 151.978 24.7019 151.912 24.516C151.857 24.3191 151.737 24.1879 151.551 24.1222C151.376 24.0457 151.108 24.0019 150.747 23.991V23.6629ZM153.684 29.487C154.198 29.5088 154.624 29.5362 154.964 29.569C155.314 29.5909 155.609 29.6127 155.849 29.6346C156.101 29.6565 156.325 29.6838 156.522 29.7167C157.43 29.8041 158.097 30.0174 158.524 30.3565C158.961 30.6846 159.251 31.1877 159.393 31.8658L159.77 33.5556C159.869 34.0041 159.973 34.3267 160.082 34.5236C160.202 34.7095 160.372 34.797 160.591 34.7861C160.744 34.7861 160.875 34.7478 160.984 34.6712C161.094 34.5837 161.203 34.4689 161.313 34.3267L161.542 34.5236C161.269 34.8626 160.979 35.1142 160.673 35.2783C160.367 35.4314 159.978 35.5079 159.508 35.5079C158.983 35.5079 158.54 35.3876 158.179 35.147C157.818 34.8955 157.572 34.4252 157.441 33.7361L157.129 32.0955C157.042 31.6361 156.938 31.2315 156.817 30.8815C156.708 30.5315 156.555 30.258 156.358 30.0612C156.161 29.8643 155.871 29.7659 155.489 29.7659H153.717L153.684 29.487Z" fill="black"/>
<path d="M172.497 23.6629V23.991C172.147 24.0238 171.88 24.1058 171.694 24.2371C171.508 24.3574 171.382 24.5543 171.316 24.8277C171.262 25.0902 171.234 25.4675 171.234 25.9597V35.3275C171.136 35.3165 171.026 35.3111 170.906 35.3111C170.797 35.3111 170.676 35.3165 170.545 35.3275L163.507 25.7628V32.8502C163.507 33.3752 163.54 33.7853 163.605 34.0806C163.671 34.365 163.813 34.5728 164.032 34.7041C164.262 34.8244 164.606 34.9064 165.066 34.9501V35.2783C164.858 35.2564 164.59 35.2454 164.262 35.2454C163.934 35.2345 163.622 35.229 163.327 35.229C163.064 35.229 162.796 35.2345 162.523 35.2454C162.26 35.2454 162.041 35.2564 161.866 35.2783V34.9501C162.227 34.9064 162.495 34.8244 162.67 34.7041C162.856 34.5837 162.977 34.3869 163.031 34.1134C163.097 33.84 163.13 33.4627 163.13 32.9814V25.4019C163.13 24.9972 163.097 24.7019 163.031 24.516C162.977 24.3191 162.856 24.1879 162.67 24.1222C162.495 24.0457 162.227 24.0019 161.866 23.991V23.6629C162.041 23.6738 162.26 23.6847 162.523 23.6957C162.796 23.7066 163.064 23.7121 163.327 23.7121C163.578 23.7121 163.824 23.7066 164.065 23.6957C164.305 23.6847 164.519 23.6738 164.705 23.6629L170.857 31.8494V26.0909C170.857 25.555 170.824 25.1449 170.758 24.8605C170.693 24.5761 170.551 24.3683 170.332 24.2371C170.113 24.1058 169.769 24.0238 169.298 23.991V23.6629C169.506 23.6738 169.774 23.6847 170.102 23.6957C170.441 23.7066 170.753 23.7121 171.037 23.7121C171.311 23.7121 171.579 23.7066 171.841 23.6957C172.115 23.6847 172.333 23.6738 172.497 23.6629Z" fill="black"/>
<path d="M68.0427 7.43923L70.7114 14.3078C70.8135 14.5776 70.9301 14.7599 71.0614 14.8547C71.1999 14.9495 71.3275 15.0005 71.4442 15.0078V15.2266C71.2692 15.212 71.0614 15.2047 70.8208 15.2047C70.5874 15.1974 70.3505 15.1938 70.1098 15.1938C69.8036 15.1938 69.5192 15.1974 69.2567 15.2047C68.9942 15.2047 68.7828 15.212 68.6224 15.2266V15.0078C68.9942 14.9932 69.2276 14.9313 69.3223 14.8219C69.4244 14.7052 69.4026 14.461 69.2567 14.0891L67.288 8.77357L67.463 8.5767L65.6474 13.3235C65.5162 13.6516 65.436 13.925 65.4068 14.1438C65.3849 14.3625 65.4032 14.5339 65.4615 14.6578C65.5271 14.7818 65.6365 14.8693 65.7896 14.9203C65.9427 14.9714 66.1323 15.0005 66.3583 15.0078V15.2266C66.1396 15.212 65.9172 15.2047 65.6912 15.2047C65.4724 15.1974 65.2646 15.1938 65.0677 15.1938C64.8928 15.1938 64.736 15.1974 64.5974 15.2047C64.4662 15.2047 64.3459 15.212 64.2365 15.2266V15.0078C64.3896 14.9714 64.5428 14.8802 64.6959 14.7344C64.849 14.5886 64.9948 14.3407 65.1334 13.9907L67.6708 7.43923C67.7292 7.43923 67.7911 7.43923 67.8568 7.43923C67.9224 7.43923 67.9844 7.43923 68.0427 7.43923ZM69.1911 12.0766V12.2954H65.9318L66.0412 12.0766H69.1911Z" fill="black"/>
<path d="M76.2765 9.58293V9.80168C76.138 9.82355 76.0104 9.89647 75.8937 10.0204C75.777 10.1371 75.664 10.3413 75.5546 10.6329L73.8484 15.2047L73.5859 15.4672L71.4532 10.4251C71.3146 10.1407 71.1797 9.96938 71.0485 9.91105C70.9245 9.84543 70.8188 9.81262 70.7313 9.81262V9.58293C70.9136 9.60481 71.1068 9.62304 71.311 9.63762C71.5151 9.64491 71.7266 9.64856 71.9453 9.64856C72.1932 9.64856 72.4412 9.64127 72.6891 9.62668C72.9443 9.6121 73.1813 9.59752 73.4 9.58293V9.81262C73.225 9.81262 73.0682 9.8272 72.9297 9.85637C72.7984 9.87824 72.7109 9.94751 72.6672 10.0642C72.6307 10.1735 72.6672 10.3631 72.7766 10.6329L74.1328 13.9688L74.0562 14.0016L75.1609 11.0704C75.2703 10.7787 75.314 10.5454 75.2921 10.3704C75.2703 10.1881 75.1937 10.0532 75.0625 9.96574C74.9312 9.87095 74.738 9.81626 74.4828 9.80168V9.58293C74.6067 9.59023 74.7198 9.59752 74.8218 9.60481C74.9312 9.60481 75.0369 9.60845 75.139 9.61575C75.2411 9.61575 75.3432 9.61575 75.4453 9.61575C75.6057 9.61575 75.7552 9.6121 75.8937 9.60481C76.0395 9.59752 76.1671 9.59023 76.2765 9.58293ZM73.8484 15.2047L73.4547 16.2328C73.3818 16.4151 73.3052 16.5682 73.225 16.6922C73.1521 16.8161 73.0719 16.9182 72.9844 16.9984C72.875 17.1005 72.7401 17.1734 72.5797 17.2172C72.4193 17.2609 72.2589 17.2828 72.0985 17.2828C71.9453 17.2828 71.7995 17.2536 71.661 17.1953C71.5297 17.1442 71.4203 17.064 71.3328 16.9547C71.2453 16.8453 71.2016 16.7104 71.2016 16.55C71.2016 16.3604 71.2636 16.2073 71.3875 16.0906C71.5115 15.974 71.6756 15.9156 71.8797 15.9156C72.062 15.9156 72.2151 15.963 72.3391 16.0578C72.463 16.1599 72.525 16.3057 72.525 16.4953C72.525 16.6265 72.4886 16.7396 72.4156 16.8344C72.35 16.9291 72.2625 17.0021 72.1531 17.0531C72.175 17.0604 72.1969 17.064 72.2188 17.064C72.2406 17.064 72.2589 17.064 72.2735 17.064C72.4776 17.064 72.6599 16.9948 72.8203 16.8562C72.9807 16.725 73.1156 16.5099 73.225 16.2109L73.6187 15.1609L73.8484 15.2047Z" fill="black"/>
<path d="M80.9647 9.59387V9.82355C80.6876 9.82355 80.4907 9.87824 80.3741 9.98761C80.2574 10.097 80.1991 10.3048 80.1991 10.611V14.2094C80.1991 14.5156 80.2574 14.7235 80.3741 14.8328C80.498 14.9422 80.7496 14.9969 81.1287 14.9969C81.0996 15.2521 81.0777 15.4964 81.0631 15.7297C81.0558 15.963 81.0522 16.1417 81.0522 16.2656C81.0522 16.3969 81.0558 16.5208 81.0631 16.6375C81.0704 16.7614 81.0777 16.8635 81.085 16.9437H80.8334C80.7824 16.5135 80.7168 16.1672 80.6366 15.9047C80.5563 15.6495 80.4324 15.4672 80.2647 15.3578C80.1043 15.2484 79.8709 15.1938 79.5647 15.1938C79.3897 15.1938 79.2256 15.1974 79.0725 15.2047C78.9267 15.2047 78.7663 15.2083 78.5913 15.2156C78.4163 15.2156 78.2158 15.2193 77.9897 15.2266C77.7637 15.2266 77.4903 15.2266 77.1694 15.2266C76.8632 15.2266 76.6262 15.2776 76.4585 15.3797C76.2908 15.4891 76.1668 15.6677 76.0866 15.9156C76.0064 16.1708 75.9445 16.5135 75.9007 16.9437H75.6491C75.6637 16.8635 75.671 16.7614 75.671 16.6375C75.6783 16.5208 75.682 16.3969 75.682 16.2656C75.682 16.1417 75.6747 15.963 75.6601 15.7297C75.6528 15.4964 75.6346 15.2521 75.6054 14.9969H78.296C78.5585 14.9969 78.7444 14.9422 78.8538 14.8328C78.9631 14.7235 79.0178 14.5156 79.0178 14.2094V10.611C79.0178 10.3048 78.9668 10.097 78.8647 9.98761C78.7626 9.87824 78.5876 9.82355 78.3397 9.82355H78.2413C77.9861 9.82355 77.8147 9.88189 77.7272 9.99855C77.647 10.1079 77.5923 10.3121 77.5632 10.611C77.534 11.0194 77.4939 11.4423 77.4429 11.8798C77.3991 12.31 77.3371 12.7292 77.2569 13.1376C77.184 13.5386 77.0783 13.9032 76.9397 14.2313C76.8449 14.4573 76.721 14.6578 76.5679 14.8328C76.422 15.0005 76.2288 15.1026 75.9882 15.1391L75.8132 14.9969C76.0465 14.9969 76.2398 14.913 76.3929 14.7453C76.5533 14.5776 76.6736 14.388 76.7538 14.1766C76.8778 13.8558 76.9762 13.5021 77.0491 13.1157C77.1293 12.7292 77.1949 12.3245 77.246 11.9016C77.297 11.4714 77.3371 11.0412 77.3663 10.611C77.3882 10.3048 77.3225 10.097 77.1694 9.98761C77.0236 9.87824 76.8012 9.82355 76.5023 9.82355V9.59387C76.5606 9.60116 76.6517 9.6121 76.7757 9.62668C76.9069 9.63397 77.0601 9.63762 77.2351 9.63762C77.41 9.63762 77.5887 9.63033 77.771 9.61575C77.9533 9.60116 78.1538 9.59387 78.3725 9.59387C78.6059 9.59387 78.8137 9.60116 78.996 9.61575C79.1782 9.63033 79.3897 9.63762 79.6303 9.63762C79.8782 9.63762 80.1298 9.63397 80.385 9.62668C80.6402 9.6121 80.8334 9.60116 80.9647 9.59387Z" fill="black"/>
<path d="M87.9998 9.59387V9.82355C87.7154 9.82355 87.5113 9.87824 87.3873 9.98761C87.2707 10.097 87.2123 10.3048 87.2123 10.611V14.2094C87.2123 14.5156 87.2707 14.7235 87.3873 14.8328C87.5113 14.9422 87.7154 14.9969 87.9998 14.9969V15.2266C87.8759 15.2193 87.6826 15.212 87.4201 15.2047C87.1576 15.1901 86.8988 15.1828 86.6436 15.1828C86.3957 15.1828 86.1478 15.1901 85.8999 15.2047C85.6592 15.212 85.4769 15.2193 85.353 15.2266V14.9969C85.6009 14.9969 85.7759 14.9422 85.878 14.8328C85.9801 14.7235 86.0311 14.5156 86.0311 14.2094V10.611C86.0311 10.3048 85.9801 10.097 85.878 9.98761C85.7759 9.87824 85.6009 9.82355 85.353 9.82355V9.59387C85.4769 9.60116 85.6556 9.6121 85.8889 9.62668C86.1295 9.63397 86.3738 9.63762 86.6217 9.63762C86.8769 9.63762 87.1358 9.63397 87.3983 9.62668C87.6681 9.6121 87.8686 9.60116 87.9998 9.59387ZM84.2921 9.59387V9.82355C84.0515 9.82355 83.8765 9.87824 83.7671 9.98761C83.665 10.097 83.614 10.3048 83.614 10.611V14.2094C83.614 14.5156 83.665 14.7235 83.7671 14.8328C83.8765 14.9422 84.0515 14.9969 84.2921 14.9969V15.2266C84.1754 15.2193 83.9968 15.212 83.7561 15.2047C83.5228 15.1901 83.2786 15.1828 83.0234 15.1828C82.7754 15.1828 82.5166 15.1901 82.2468 15.2047C81.977 15.212 81.7765 15.2193 81.6452 15.2266V14.9969C81.9296 14.9969 82.1301 14.9422 82.2468 14.8328C82.3708 14.7235 82.4327 14.5156 82.4327 14.2094V10.611C82.4327 10.3048 82.3708 10.097 82.2468 9.98761C82.1301 9.87824 81.9296 9.82355 81.6452 9.82355V9.59387C81.7765 9.60116 81.9734 9.6121 82.2359 9.62668C82.4984 9.63397 82.7536 9.63762 83.0015 9.63762C83.2567 9.63762 83.5046 9.63397 83.7452 9.62668C83.9931 9.6121 84.1754 9.60116 84.2921 9.59387ZM86.1514 10.3267L86.3264 10.447L83.4608 14.6906L83.2749 14.5594L86.1514 10.3267Z" fill="black"/>
<path d="M94.1437 9.59387C94.1146 9.87095 94.0927 10.1334 94.0781 10.3814C94.0708 10.6293 94.0672 10.8188 94.0672 10.9501C94.0672 11.0886 94.0708 11.2199 94.0781 11.3438C94.0854 11.4678 94.0927 11.5699 94.1 11.6501H93.8484C93.7901 11.1397 93.6953 10.7532 93.5641 10.4907C93.4401 10.2282 93.2797 10.0496 93.0828 9.9548C92.886 9.86001 92.6526 9.81262 92.3828 9.81262H91.9782V14.1C91.9782 14.4573 92.0766 14.6979 92.2735 14.8219C92.4776 14.9386 92.7511 14.9969 93.0938 14.9969V15.2266C92.9188 15.2193 92.6782 15.212 92.3719 15.2047C92.0657 15.1901 91.7375 15.1828 91.3876 15.1828C91.0449 15.1828 90.7167 15.1901 90.4032 15.2047C90.097 15.212 89.8563 15.2193 89.6813 15.2266V14.9969C90.0313 14.9969 90.3048 14.9422 90.5016 14.8328C90.6985 14.7162 90.7969 14.4792 90.7969 14.1219V9.81262H90.3048C90.035 9.81262 89.8089 9.86001 89.6267 9.9548C89.4444 10.0496 89.2949 10.2319 89.1782 10.5017C89.0688 10.7642 88.985 11.1506 88.9267 11.661H88.6751C88.6897 11.5808 88.697 11.4787 88.697 11.3548C88.7043 11.2308 88.7079 11.0996 88.7079 10.961C88.7079 10.8298 88.7006 10.6402 88.686 10.3923C88.6787 10.1371 88.6605 9.87459 88.6314 9.60481H89.7141C89.9475 9.60481 90.21 9.60845 90.5016 9.61575C90.7933 9.62304 91.085 9.62668 91.3766 9.62668C91.6683 9.62668 91.9599 9.62304 92.2516 9.61575C92.5506 9.60116 92.8167 9.59387 93.05 9.59387H94.1437Z" fill="black"/>
<path d="M97.5064 9.42981C97.995 9.42981 98.4288 9.53189 98.808 9.73606C99.1871 9.94022 99.4897 10.261 99.7158 10.6985C99.9418 11.136 100.055 11.7084 100.055 12.4157C100.055 13.123 99.9418 13.6954 99.7158 14.1328C99.4897 14.563 99.1871 14.8802 98.808 15.0844C98.4288 15.2813 97.995 15.3797 97.5064 15.3797C97.0252 15.3797 96.5914 15.2813 96.2049 15.0844C95.8185 14.8802 95.5122 14.563 95.2862 14.1328C95.0674 13.6954 94.9581 13.123 94.9581 12.4157C94.9581 11.7084 95.0674 11.136 95.2862 10.6985C95.5122 10.261 95.8185 9.94022 96.2049 9.73606C96.5914 9.53189 97.0252 9.42981 97.5064 9.42981ZM97.5064 9.64856C97.1273 9.64856 96.8174 9.8673 96.5768 10.3048C96.3362 10.735 96.2159 11.4386 96.2159 12.4157C96.2159 13.3928 96.3362 14.0964 96.5768 14.5266C96.8174 14.9495 97.1273 15.1609 97.5064 15.1609C97.8783 15.1609 98.1846 14.9495 98.4252 14.5266C98.6731 14.0964 98.7971 13.3928 98.7971 12.4157C98.7971 11.4386 98.6731 10.735 98.4252 10.3048C98.1846 9.8673 97.8783 9.64856 97.5064 9.64856Z" fill="black"/>
<path d="M102.731 9.46262V16.1672C102.731 16.488 102.822 16.7031 103.005 16.8125C103.187 16.9219 103.439 16.9765 103.759 16.9765V17.2062C103.592 17.1989 103.358 17.188 103.059 17.1734C102.76 17.1661 102.44 17.1625 102.097 17.1625C101.856 17.1625 101.619 17.1661 101.386 17.1734C101.153 17.188 100.974 17.1989 100.85 17.2062V16.9765C101.105 16.9765 101.284 16.9255 101.386 16.8234C101.495 16.7286 101.55 16.5463 101.55 16.2766V10.7751C101.55 10.447 101.495 10.2064 101.386 10.0532C101.277 9.89282 101.069 9.81262 100.763 9.81262V9.58293C100.996 9.60481 101.222 9.61575 101.441 9.61575C101.681 9.61575 101.911 9.60481 102.13 9.58293C102.349 9.55377 102.549 9.51366 102.731 9.46262ZM104.47 9.42981C104.85 9.42981 105.189 9.53554 105.488 9.74699C105.794 9.95115 106.034 10.2538 106.209 10.6548C106.384 11.0558 106.472 11.5553 106.472 12.1532C106.472 12.5907 106.421 13.0063 106.319 13.4C106.217 13.7865 106.06 14.1292 105.848 14.4282C105.644 14.7198 105.385 14.9531 105.072 15.1281C104.758 15.2958 104.386 15.3797 103.956 15.3797C103.635 15.3797 103.351 15.3104 103.103 15.1719C102.863 15.0333 102.691 14.8584 102.589 14.6469L102.699 14.4938C102.793 14.6761 102.925 14.8255 103.092 14.9422C103.267 15.0589 103.482 15.1172 103.738 15.1172C104.117 15.1172 104.412 14.9969 104.623 14.7563C104.842 14.5084 104.995 14.1766 105.083 13.761C105.17 13.3381 105.214 12.8605 105.214 12.3282C105.214 11.7303 105.17 11.249 105.083 10.8845C104.995 10.5126 104.864 10.2428 104.689 10.0751C104.514 9.90012 104.303 9.81262 104.055 9.81262C103.727 9.81262 103.428 9.94386 103.158 10.2064C102.895 10.4689 102.735 10.8626 102.677 11.3876L102.567 11.1579C102.662 10.611 102.881 10.1881 103.223 9.88918C103.573 9.58293 103.989 9.42981 104.47 9.42981Z" fill="black"/>
<path d="M110.026 9.42981C110.273 9.42981 110.51 9.46262 110.736 9.52825C110.963 9.58658 111.159 9.67043 111.327 9.77981C111.502 9.88918 111.633 10.0204 111.721 10.1735C111.816 10.3267 111.863 10.4944 111.863 10.6767C111.863 10.8954 111.801 11.0668 111.677 11.1907C111.553 11.3147 111.393 11.3766 111.196 11.3766C110.999 11.3766 110.835 11.322 110.704 11.2126C110.572 11.1032 110.507 10.9464 110.507 10.7423C110.507 10.5527 110.561 10.3996 110.671 10.2829C110.78 10.159 110.908 10.0788 111.054 10.0423C110.988 9.93293 110.871 9.84178 110.704 9.76887C110.543 9.68866 110.368 9.64856 110.179 9.64856C109.982 9.64856 109.792 9.6996 109.61 9.80168C109.435 9.90376 109.278 10.0605 109.14 10.272C109.001 10.4834 108.888 10.7569 108.801 11.0923C108.72 11.4277 108.68 11.8324 108.68 12.3063C108.68 12.9188 108.75 13.4073 108.888 13.7719C109.034 14.1292 109.223 14.3844 109.457 14.5375C109.69 14.6906 109.942 14.7672 110.211 14.7672C110.386 14.7672 110.565 14.7344 110.747 14.6688C110.937 14.6031 111.116 14.4938 111.283 14.3407C111.458 14.1875 111.611 13.9797 111.743 13.7172L111.951 13.7938C111.87 14.0344 111.743 14.2787 111.568 14.5266C111.4 14.7745 111.178 14.9787 110.901 15.1391C110.623 15.2995 110.284 15.3797 109.883 15.3797C109.424 15.3797 109.008 15.2667 108.637 15.0406C108.265 14.8146 107.969 14.4865 107.751 14.0563C107.532 13.6188 107.422 13.0865 107.422 12.4594C107.422 11.847 107.532 11.3147 107.751 10.8626C107.977 10.4032 108.287 10.0496 108.68 9.80168C109.074 9.55377 109.522 9.42981 110.026 9.42981Z" fill="black"/>
<path d="M117.488 9.42981C117.779 9.42981 117.987 9.49908 118.111 9.63762C118.235 9.77616 118.297 9.93657 118.297 10.1189C118.297 10.3157 118.239 10.4761 118.122 10.6001C118.005 10.7241 117.845 10.786 117.641 10.786C117.509 10.786 117.389 10.7569 117.28 10.6985C117.17 10.6402 117.083 10.5564 117.017 10.447C116.952 10.3376 116.919 10.2064 116.919 10.0532C116.919 10.0095 116.93 9.96574 116.952 9.92199C116.974 9.87095 117.006 9.83084 117.05 9.80168C116.933 9.83084 116.839 9.89647 116.766 9.99855C116.693 10.0933 116.624 10.2282 116.558 10.4032C116.492 10.5709 116.416 10.7824 116.328 11.0376C116.263 11.2345 116.186 11.424 116.099 11.6063C116.011 11.7813 115.887 11.9308 115.727 12.0548C115.574 12.1714 115.358 12.248 115.081 12.2844L115.158 12.2079C115.639 12.1787 116.048 12.2188 116.383 12.3282C116.726 12.4376 116.992 12.6344 117.181 12.9188C117.313 13.1084 117.418 13.3417 117.499 13.6188C117.586 13.8959 117.681 14.1547 117.783 14.3953C117.863 14.5776 117.951 14.7198 118.045 14.8219C118.147 14.9167 118.304 14.975 118.516 14.9969V15.2266C118.399 15.2484 118.279 15.2667 118.155 15.2813C118.031 15.2958 117.914 15.3031 117.805 15.3031C117.447 15.3031 117.174 15.2229 116.984 15.0625C116.802 14.9021 116.671 14.6688 116.591 14.3625C116.554 14.2459 116.511 14.1 116.459 13.925C116.416 13.7427 116.354 13.5605 116.274 13.3782C116.201 13.1886 116.113 13.0282 116.011 12.8969C115.865 12.6928 115.672 12.5579 115.431 12.4923C115.198 12.4266 114.895 12.4011 114.524 12.4157V12.2298C114.91 12.2079 115.205 12.1423 115.41 12.0329C115.614 11.9235 115.77 11.7704 115.88 11.5735C115.989 11.3766 116.091 11.136 116.186 10.8517C116.259 10.6183 116.339 10.3923 116.427 10.1735C116.514 9.9548 116.638 9.77616 116.799 9.63762C116.966 9.49908 117.196 9.42981 117.488 9.42981ZM115.267 9.59387V9.82355C115.012 9.82355 114.83 9.87824 114.72 9.98761C114.618 10.097 114.567 10.3048 114.567 10.611V14.2094C114.567 14.5156 114.618 14.7235 114.72 14.8328C114.83 14.9422 115.012 14.9969 115.267 14.9969V15.2266C115.143 15.2193 114.957 15.212 114.71 15.2047C114.462 15.1901 114.21 15.1828 113.955 15.1828C113.707 15.1828 113.452 15.1901 113.189 15.2047C112.927 15.212 112.73 15.2193 112.599 15.2266V14.9969C112.883 14.9969 113.084 14.9422 113.2 14.8328C113.324 14.7235 113.386 14.5156 113.386 14.2094V10.611C113.386 10.3048 113.324 10.097 113.2 9.98761C113.084 9.87824 112.883 9.82355 112.599 9.82355V9.59387C112.73 9.60116 112.927 9.6121 113.189 9.62668C113.459 9.63397 113.722 9.63762 113.977 9.63762C114.225 9.63762 114.473 9.63397 114.72 9.62668C114.968 9.6121 115.151 9.60116 115.267 9.59387Z" fill="black"/>
<path d="M120.549 15.3031C120.243 15.3031 119.981 15.2448 119.762 15.1281C119.543 15.0115 119.379 14.8511 119.27 14.6469C119.16 14.4427 119.106 14.2094 119.106 13.9469C119.106 13.6261 119.179 13.3672 119.324 13.1704C119.47 12.9662 119.656 12.8021 119.882 12.6782C120.115 12.5542 120.36 12.4521 120.615 12.3719C120.877 12.2844 121.122 12.2042 121.348 12.1313C121.581 12.0511 121.771 11.96 121.917 11.8579C122.07 11.7558 122.146 11.6209 122.146 11.4532V10.7095C122.146 10.447 122.102 10.2392 122.015 10.086C121.935 9.92564 121.822 9.81262 121.676 9.74699C121.537 9.68137 121.37 9.64856 121.173 9.64856C121.005 9.64856 120.826 9.67408 120.637 9.72512C120.447 9.76887 120.298 9.86001 120.188 9.99855C120.349 10.0423 120.48 10.1298 120.582 10.261C120.692 10.385 120.746 10.5418 120.746 10.7313C120.746 10.9355 120.677 11.0959 120.538 11.2126C120.407 11.3293 120.239 11.3876 120.035 11.3876C119.809 11.3876 119.642 11.3183 119.532 11.1798C119.423 11.0339 119.368 10.8662 119.368 10.6767C119.368 10.4798 119.416 10.3194 119.51 10.1954C119.612 10.0715 119.744 9.9548 119.904 9.84543C120.079 9.72876 120.301 9.63033 120.571 9.55012C120.848 9.46991 121.155 9.42981 121.49 9.42981C121.803 9.42981 122.073 9.46627 122.299 9.53918C122.533 9.60481 122.726 9.71418 122.879 9.8673C123.061 10.035 123.182 10.2465 123.24 10.5017C123.298 10.7496 123.327 11.0522 123.327 11.4095V14.4282C123.327 14.6104 123.349 14.7417 123.393 14.8219C123.444 14.8948 123.524 14.9313 123.634 14.9313C123.707 14.9313 123.776 14.913 123.841 14.8766C123.914 14.8401 123.998 14.7854 124.093 14.7125L124.202 14.8985C124.049 15.0224 123.893 15.1208 123.732 15.1938C123.579 15.2667 123.382 15.3031 123.141 15.3031C122.908 15.3031 122.719 15.2667 122.573 15.1938C122.427 15.1208 122.318 15.0151 122.245 14.8766C122.179 14.738 122.146 14.5667 122.146 14.3625C121.957 14.6688 121.731 14.9021 121.468 15.0625C121.206 15.2229 120.899 15.3031 120.549 15.3031ZM121.074 14.7781C121.278 14.7781 121.468 14.7198 121.643 14.6031C121.825 14.4865 121.993 14.3115 122.146 14.0782V11.9016C122.066 12.0183 121.949 12.1204 121.796 12.2079C121.643 12.2881 121.479 12.3719 121.304 12.4594C121.129 12.5469 120.961 12.649 120.801 12.7657C120.648 12.8751 120.52 13.0172 120.418 13.1922C120.316 13.3672 120.265 13.5896 120.265 13.8594C120.265 14.1438 120.338 14.3698 120.484 14.5375C120.63 14.6979 120.826 14.7781 121.074 14.7781Z" fill="black"/>
<path d="M129.965 9.59387V9.82355C129.695 9.82355 129.498 9.87824 129.374 9.98761C129.258 10.097 129.199 10.3048 129.199 10.611V14.2094C129.199 14.5156 129.25 14.7235 129.353 14.8328C129.462 14.9422 129.637 14.9969 129.878 14.9969V15.2266C129.761 15.2193 129.582 15.212 129.342 15.2047C129.108 15.1901 128.864 15.1828 128.609 15.1828C128.361 15.1828 128.106 15.1901 127.843 15.2047C127.581 15.212 127.384 15.2193 127.253 15.2266V14.9969C127.53 14.9969 127.727 14.9422 127.843 14.8328C127.96 14.7235 128.018 14.5156 128.018 14.2094V10.5345C128.018 10.272 127.967 10.0897 127.865 9.98761C127.763 9.87824 127.581 9.82355 127.318 9.82355C126.997 9.82355 126.753 9.88553 126.585 10.0095C126.418 10.1262 126.305 10.2793 126.246 10.4689C126.188 10.6584 126.159 10.8662 126.159 11.0923C126.159 11.5662 126.268 11.9199 126.487 12.1532C126.713 12.3865 127.107 12.5068 127.668 12.5141C127.836 12.5214 128.004 12.5251 128.171 12.5251C128.346 12.5251 128.514 12.5251 128.674 12.5251L128.696 12.7329C128.339 12.7329 128.026 12.7365 127.756 12.7438C127.493 12.7511 127.282 12.7547 127.121 12.7547C126.662 12.7547 126.29 12.711 126.006 12.6235C125.721 12.536 125.503 12.4157 125.35 12.2626C125.196 12.1094 125.091 11.9417 125.032 11.7595C124.981 11.5772 124.956 11.3912 124.956 11.2017C124.956 10.8881 125.021 10.611 125.153 10.3704C125.284 10.1298 125.51 9.94022 125.831 9.80168C126.159 9.66314 126.604 9.59387 127.165 9.59387C127.384 9.59387 127.614 9.60116 127.854 9.61575C128.102 9.63033 128.361 9.63762 128.631 9.63762C128.879 9.63762 129.13 9.63397 129.385 9.62668C129.648 9.6121 129.841 9.60116 129.965 9.59387ZM127.712 12.6344V12.7438C127.522 12.7511 127.333 12.7693 127.143 12.7985C126.961 12.8204 126.801 12.8969 126.662 13.0282C126.553 13.1303 126.465 13.2652 126.4 13.4329C126.341 13.6006 126.29 13.7829 126.246 13.9797C126.203 14.1693 126.144 14.3625 126.071 14.5594C125.977 14.8073 125.842 14.986 125.667 15.0953C125.492 15.2047 125.207 15.2594 124.814 15.2594C124.719 15.2594 124.617 15.2557 124.507 15.2484C124.398 15.2412 124.281 15.2339 124.157 15.2266V14.9969C124.362 14.975 124.515 14.9458 124.617 14.9094C124.719 14.8656 124.792 14.8037 124.835 14.7235C124.887 14.636 124.938 14.5229 124.989 14.3844C125.105 14.0854 125.196 13.8521 125.262 13.6844C125.335 13.5094 125.408 13.3745 125.481 13.2797C125.554 13.1777 125.645 13.0902 125.754 13.0172C125.834 12.9589 125.929 12.9079 126.039 12.8641C126.148 12.8131 126.279 12.7693 126.432 12.7329C126.585 12.6964 126.768 12.6709 126.979 12.6563C127.191 12.6344 127.435 12.6271 127.712 12.6344Z" fill="black"/>
<path d="M135.969 9.42981C136.457 9.42981 136.891 9.53189 137.27 9.73606C137.649 9.94022 137.952 10.261 138.178 10.6985C138.404 11.136 138.517 11.7084 138.517 12.4157C138.517 13.123 138.404 13.6954 138.178 14.1328C137.952 14.563 137.649 14.8802 137.27 15.0844C136.891 15.2813 136.457 15.3797 135.969 15.3797C135.487 15.3797 135.053 15.2813 134.667 15.0844C134.281 14.8802 133.974 14.563 133.748 14.1328C133.53 13.6954 133.42 13.123 133.42 12.4157C133.42 11.7084 133.53 11.136 133.748 10.6985C133.974 10.261 134.281 9.94022 134.667 9.73606C135.053 9.53189 135.487 9.42981 135.969 9.42981ZM135.969 9.64856C135.589 9.64856 135.279 9.8673 135.039 10.3048C134.798 10.735 134.678 11.4386 134.678 12.4157C134.678 13.3928 134.798 14.0964 135.039 14.5266C135.279 14.9495 135.589 15.1609 135.969 15.1609C136.34 15.1609 136.647 14.9495 136.887 14.5266C137.135 14.0964 137.259 13.3928 137.259 12.4157C137.259 11.4386 137.135 10.735 136.887 10.3048C136.647 9.8673 136.34 9.64856 135.969 9.64856Z" fill="black"/>
<path d="M141.193 9.46262V16.1672C141.193 16.488 141.285 16.7031 141.467 16.8125C141.649 16.9219 141.901 16.9765 142.221 16.9765V17.2062C142.054 17.1989 141.82 17.188 141.521 17.1734C141.223 17.1661 140.902 17.1625 140.559 17.1625C140.318 17.1625 140.081 17.1661 139.848 17.1734C139.615 17.188 139.436 17.1989 139.312 17.2062V16.9765C139.567 16.9765 139.746 16.9255 139.848 16.8234C139.957 16.7286 140.012 16.5463 140.012 16.2766V10.7751C140.012 10.447 139.957 10.2064 139.848 10.0532C139.739 9.89282 139.531 9.81262 139.225 9.81262V9.58293C139.458 9.60481 139.684 9.61575 139.903 9.61575C140.143 9.61575 140.373 9.60481 140.592 9.58293C140.811 9.55377 141.011 9.51366 141.193 9.46262ZM142.932 9.42981C143.312 9.42981 143.651 9.53554 143.95 9.74699C144.256 9.95115 144.496 10.2538 144.671 10.6548C144.846 11.0558 144.934 11.5553 144.934 12.1532C144.934 12.5907 144.883 13.0063 144.781 13.4C144.679 13.7865 144.522 14.1292 144.311 14.4282C144.106 14.7198 143.847 14.9531 143.534 15.1281C143.22 15.2958 142.849 15.3797 142.418 15.3797C142.098 15.3797 141.813 15.3104 141.565 15.1719C141.325 15.0333 141.153 14.8584 141.051 14.6469L141.161 14.4938C141.255 14.6761 141.387 14.8255 141.554 14.9422C141.729 15.0589 141.944 15.1172 142.2 15.1172C142.579 15.1172 142.874 14.9969 143.086 14.7563C143.304 14.5084 143.457 14.1766 143.545 13.761C143.632 13.3381 143.676 12.8605 143.676 12.3282C143.676 11.7303 143.632 11.249 143.545 10.8845C143.457 10.5126 143.326 10.2428 143.151 10.0751C142.976 9.90012 142.765 9.81262 142.517 9.81262C142.189 9.81262 141.89 9.94386 141.62 10.2064C141.357 10.4689 141.197 10.8626 141.139 11.3876L141.029 11.1579C141.124 10.611 141.343 10.1881 141.686 9.88918C142.036 9.58293 142.451 9.42981 142.932 9.42981Z" fill="black"/>
<path d="M150.194 9.59387C150.165 9.87095 150.143 10.1334 150.128 10.3814C150.121 10.6293 150.117 10.8188 150.117 10.9501C150.117 11.0886 150.121 11.2199 150.128 11.3438C150.135 11.4678 150.143 11.5699 150.15 11.6501H149.899C149.847 11.198 149.778 10.8407 149.691 10.5782C149.611 10.3084 149.49 10.1152 149.33 9.99855C149.177 9.87459 148.965 9.81262 148.695 9.81262C148.637 9.81262 148.575 9.81262 148.509 9.81262C148.451 9.81262 148.389 9.81262 148.324 9.81262C148.09 9.81262 147.923 9.8673 147.82 9.97668C147.726 10.086 147.678 10.2829 147.678 10.5673V14.1C147.678 14.4573 147.777 14.6979 147.974 14.8219C148.178 14.9386 148.451 14.9969 148.794 14.9969V15.2266C148.619 15.2193 148.371 15.212 148.05 15.2047C147.737 15.1901 147.401 15.1828 147.044 15.1828C146.789 15.1828 146.533 15.1901 146.278 15.2047C146.03 15.212 145.841 15.2193 145.71 15.2266V14.9969C145.994 14.9969 146.194 14.9422 146.311 14.8328C146.435 14.7235 146.497 14.5156 146.497 14.2094V10.611C146.497 10.3048 146.435 10.097 146.311 9.98761C146.194 9.87824 145.994 9.82355 145.71 9.82355V9.59387C145.841 9.60116 146.038 9.6121 146.3 9.62668C146.563 9.63397 146.818 9.63762 147.066 9.63762C147.321 9.63762 147.573 9.63033 147.82 9.61575C148.076 9.60116 148.302 9.59387 148.499 9.59387H150.194Z" fill="black"/>
<path d="M152.347 15.3031C152.04 15.3031 151.778 15.2448 151.559 15.1281C151.34 15.0115 151.176 14.8511 151.067 14.6469C150.957 14.4427 150.903 14.2094 150.903 13.9469C150.903 13.6261 150.976 13.3672 151.122 13.1704C151.267 12.9662 151.453 12.8021 151.679 12.6782C151.913 12.5542 152.157 12.4521 152.412 12.3719C152.675 12.2844 152.919 12.2042 153.145 12.1313C153.378 12.0511 153.568 11.96 153.714 11.8579C153.867 11.7558 153.943 11.6209 153.943 11.4532V10.7095C153.943 10.447 153.9 10.2392 153.812 10.086C153.732 9.92564 153.619 9.81262 153.473 9.74699C153.335 9.68137 153.167 9.64856 152.97 9.64856C152.802 9.64856 152.624 9.67408 152.434 9.72512C152.244 9.76887 152.095 9.86001 151.986 9.99855C152.146 10.0423 152.277 10.1298 152.379 10.261C152.489 10.385 152.543 10.5418 152.543 10.7313C152.543 10.9355 152.474 11.0959 152.336 11.2126C152.204 11.3293 152.037 11.3876 151.832 11.3876C151.606 11.3876 151.439 11.3183 151.329 11.1798C151.22 11.0339 151.165 10.8662 151.165 10.6767C151.165 10.4798 151.213 10.3194 151.307 10.1954C151.41 10.0715 151.541 9.9548 151.701 9.84543C151.876 9.72876 152.099 9.63033 152.368 9.55012C152.645 9.46991 152.952 9.42981 153.287 9.42981C153.601 9.42981 153.87 9.46627 154.096 9.53918C154.33 9.60481 154.523 9.71418 154.676 9.8673C154.858 10.035 154.979 10.2465 155.037 10.5017C155.095 10.7496 155.125 11.0522 155.125 11.4095V14.4282C155.125 14.6104 155.146 14.7417 155.19 14.8219C155.241 14.8948 155.321 14.9313 155.431 14.9313C155.504 14.9313 155.573 14.913 155.639 14.8766C155.712 14.8401 155.795 14.7854 155.89 14.7125L156 14.8985C155.846 15.0224 155.69 15.1208 155.529 15.1938C155.376 15.2667 155.179 15.3031 154.939 15.3031C154.705 15.3031 154.516 15.2667 154.37 15.1938C154.224 15.1208 154.115 15.0151 154.042 14.8766C153.976 14.738 153.943 14.5667 153.943 14.3625C153.754 14.6688 153.528 14.9021 153.265 15.0625C153.003 15.2229 152.697 15.3031 152.347 15.3031ZM152.871 14.7781C153.076 14.7781 153.265 14.7198 153.44 14.6031C153.623 14.4865 153.79 14.3115 153.943 14.0782V11.9016C153.863 12.0183 153.746 12.1204 153.593 12.2079C153.44 12.2881 153.276 12.3719 153.101 12.4594C152.926 12.5469 152.758 12.649 152.598 12.7657C152.445 12.8751 152.317 13.0172 152.215 13.1922C152.113 13.3672 152.062 13.5896 152.062 13.8594C152.062 14.1438 152.135 14.3698 152.281 14.5375C152.427 14.6979 152.624 14.7781 152.871 14.7781Z" fill="black"/>
<path d="M162.506 9.59387V9.82355C162.222 9.82355 162.017 9.87824 161.893 9.98761C161.777 10.097 161.718 10.3048 161.718 10.611V14.2094C161.718 14.5156 161.777 14.7235 161.893 14.8328C162.017 14.9422 162.222 14.9969 162.506 14.9969V15.2266C162.382 15.2193 162.189 15.212 161.926 15.2047C161.664 15.1901 161.405 15.1828 161.15 15.1828C160.902 15.1828 160.654 15.1901 160.406 15.2047C160.165 15.212 159.983 15.2193 159.859 15.2266V14.9969C160.107 14.9969 160.282 14.9422 160.384 14.8328C160.486 14.7235 160.537 14.5156 160.537 14.2094V10.611C160.537 10.3048 160.486 10.097 160.384 9.98761C160.282 9.87824 160.107 9.82355 159.859 9.82355V9.59387C159.983 9.60116 160.162 9.6121 160.395 9.62668C160.636 9.63397 160.88 9.63762 161.128 9.63762C161.383 9.63762 161.642 9.63397 161.904 9.62668C162.174 9.6121 162.375 9.60116 162.506 9.59387ZM158.973 9.59387V9.82355C158.733 9.82355 158.558 9.87824 158.448 9.98761C158.346 10.097 158.295 10.3048 158.295 10.611V14.2094C158.295 14.5156 158.346 14.7235 158.448 14.8328C158.558 14.9422 158.733 14.9969 158.973 14.9969V15.2266C158.857 15.2193 158.678 15.212 158.437 15.2047C158.204 15.1901 157.96 15.1828 157.704 15.1828C157.457 15.1828 157.198 15.1901 156.928 15.2047C156.658 15.212 156.458 15.2193 156.326 15.2266V14.9969C156.611 14.9969 156.811 14.9422 156.928 14.8328C157.052 14.7235 157.114 14.5156 157.114 14.2094V10.611C157.114 10.3048 157.052 10.097 156.928 9.98761C156.811 9.87824 156.611 9.82355 156.326 9.82355V9.59387C156.458 9.60116 156.655 9.6121 156.917 9.62668C157.18 9.63397 157.435 9.63762 157.683 9.63762C157.938 9.63762 158.186 9.63397 158.426 9.62668C158.674 9.6121 158.857 9.60116 158.973 9.59387ZM160.931 12.2188V12.4376H157.847V12.2188H160.931Z" fill="black"/>
<path d="M169.463 9.59387V9.82355C169.179 9.82355 168.975 9.87824 168.851 9.98761C168.734 10.097 168.676 10.3048 168.676 10.611V14.2094C168.676 14.5156 168.734 14.7235 168.851 14.8328C168.975 14.9422 169.179 14.9969 169.463 14.9969V15.2266C169.339 15.2193 169.146 15.212 168.884 15.2047C168.621 15.1901 168.362 15.1828 168.107 15.1828C167.859 15.1828 167.611 15.1901 167.363 15.2047C167.123 15.212 166.94 15.2193 166.817 15.2266V14.9969C167.064 14.9969 167.239 14.9422 167.342 14.8328C167.444 14.7235 167.495 14.5156 167.495 14.2094V10.611C167.495 10.3048 167.444 10.097 167.342 9.98761C167.239 9.87824 167.064 9.82355 166.817 9.82355V9.59387C166.94 9.60116 167.119 9.6121 167.352 9.62668C167.593 9.63397 167.837 9.63762 168.085 9.63762C168.34 9.63762 168.599 9.63397 168.862 9.62668C169.132 9.6121 169.332 9.60116 169.463 9.59387ZM165.756 9.59387V9.82355C165.515 9.82355 165.34 9.87824 165.231 9.98761C165.129 10.097 165.077 10.3048 165.077 10.611V14.2094C165.077 14.5156 165.129 14.7235 165.231 14.8328C165.34 14.9422 165.515 14.9969 165.756 14.9969V15.2266C165.639 15.2193 165.46 15.212 165.22 15.2047C164.986 15.1901 164.742 15.1828 164.487 15.1828C164.239 15.1828 163.98 15.1901 163.71 15.2047C163.441 15.212 163.24 15.2193 163.109 15.2266V14.9969C163.393 14.9969 163.594 14.9422 163.71 14.8328C163.834 14.7235 163.896 14.5156 163.896 14.2094V10.611C163.896 10.3048 163.834 10.097 163.71 9.98761C163.594 9.87824 163.393 9.82355 163.109 9.82355V9.59387C163.24 9.60116 163.437 9.6121 163.699 9.62668C163.962 9.63397 164.217 9.63762 164.465 9.63762C164.72 9.63762 164.968 9.63397 165.209 9.62668C165.457 9.6121 165.639 9.60116 165.756 9.59387ZM167.615 10.3267L167.79 10.447L164.924 14.6906L164.738 14.5594L167.615 10.3267Z" fill="black"/>
<path d="M172.534 9.42981C172.877 9.42981 173.176 9.4845 173.431 9.59387C173.686 9.69595 173.883 9.84178 174.021 10.0314C174.167 10.2209 174.24 10.4506 174.24 10.7204C174.24 11.0267 174.145 11.2819 173.956 11.486C173.773 11.6829 173.544 11.8397 173.267 11.9563C172.99 12.073 172.709 12.1605 172.425 12.2188C172.855 12.2261 173.23 12.2844 173.551 12.3938C173.872 12.5032 174.12 12.6636 174.295 12.8751C174.47 13.0792 174.557 13.3417 174.557 13.6625C174.557 14.0125 174.448 14.3188 174.229 14.5813C174.01 14.8365 173.712 15.0333 173.332 15.1719C172.953 15.3104 172.534 15.3797 172.075 15.3797C171.761 15.3797 171.484 15.3432 171.243 15.2703C171.01 15.2047 170.806 15.1136 170.631 14.9969C170.478 14.8948 170.354 14.7781 170.259 14.6469C170.164 14.5156 170.117 14.3698 170.117 14.2094C170.117 14.0198 170.175 13.8631 170.292 13.7391C170.416 13.6151 170.58 13.5532 170.784 13.5532C170.974 13.5532 171.134 13.6115 171.265 13.7282C171.404 13.8375 171.473 13.998 171.473 14.2094C171.473 14.3771 171.422 14.5156 171.32 14.625C171.225 14.7271 171.101 14.7964 170.948 14.8328C171.006 14.9276 171.141 15.0115 171.353 15.0844C171.571 15.15 171.79 15.1828 172.009 15.1828C172.446 15.1828 172.778 15.0516 173.004 14.7891C173.238 14.5266 173.354 14.1839 173.354 13.761C173.354 13.3745 173.259 13.0428 173.07 12.7657C172.888 12.4886 172.614 12.3391 172.25 12.3173C172.177 12.3537 172.1 12.3865 172.02 12.4157C171.947 12.4449 171.87 12.4594 171.79 12.4594C171.63 12.4594 171.55 12.3975 171.55 12.2735C171.55 12.1568 171.633 12.0985 171.801 12.0985C171.874 12.0985 171.951 12.1058 172.031 12.1204C172.111 12.135 172.188 12.1496 172.26 12.1641C172.581 12.0475 172.796 11.8725 172.906 11.6391C173.015 11.4058 173.07 11.1433 173.07 10.8517C173.07 10.4944 173.001 10.21 172.862 9.99855C172.723 9.7871 172.508 9.68137 172.217 9.68137C171.947 9.68137 171.695 9.76158 171.462 9.92199C171.236 10.0751 171.054 10.2902 170.915 10.5673C170.777 10.8444 170.707 11.1652 170.707 11.5298H170.456C170.47 11.1652 170.474 10.8553 170.467 10.6001C170.459 10.3449 170.449 10.1298 170.434 9.9548C170.427 9.77251 170.416 9.62668 170.401 9.51731H170.653C170.675 9.67772 170.7 9.79803 170.729 9.87824C170.766 9.95845 170.82 9.99855 170.893 9.99855C170.937 9.99855 170.988 9.98032 171.046 9.94386C171.112 9.90741 171.185 9.86366 171.265 9.81262C171.411 9.71783 171.582 9.63033 171.779 9.55012C171.976 9.46991 172.228 9.42981 172.534 9.42981Z" fill="black"/>
<path d="M176.785 15.3031C176.478 15.3031 176.216 15.2448 175.997 15.1281C175.778 15.0115 175.614 14.8511 175.505 14.6469C175.395 14.4427 175.341 14.2094 175.341 13.9469C175.341 13.6261 175.414 13.3672 175.56 13.1704C175.705 12.9662 175.891 12.8021 176.117 12.6782C176.351 12.5542 176.595 12.4521 176.85 12.3719C177.113 12.2844 177.357 12.2042 177.583 12.1313C177.816 12.0511 178.006 11.96 178.152 11.8579C178.305 11.7558 178.381 11.6209 178.381 11.4532V10.7095C178.381 10.447 178.338 10.2392 178.25 10.086C178.17 9.92564 178.057 9.81262 177.911 9.74699C177.773 9.68137 177.605 9.64856 177.408 9.64856C177.24 9.64856 177.062 9.67408 176.872 9.72512C176.682 9.76887 176.533 9.86001 176.424 9.99855C176.584 10.0423 176.715 10.1298 176.817 10.261C176.927 10.385 176.981 10.5418 176.981 10.7313C176.981 10.9355 176.912 11.0959 176.774 11.2126C176.642 11.3293 176.475 11.3876 176.27 11.3876C176.044 11.3876 175.877 11.3183 175.767 11.1798C175.658 11.0339 175.603 10.8662 175.603 10.6767C175.603 10.4798 175.651 10.3194 175.745 10.1954C175.848 10.0715 175.979 9.9548 176.139 9.84543C176.314 9.72876 176.537 9.63033 176.806 9.55012C177.083 9.46991 177.39 9.42981 177.725 9.42981C178.039 9.42981 178.308 9.46627 178.534 9.53918C178.768 9.60481 178.961 9.71418 179.114 9.8673C179.296 10.035 179.417 10.2465 179.475 10.5017C179.533 10.7496 179.563 11.0522 179.563 11.4095V14.4282C179.563 14.6104 179.584 14.7417 179.628 14.8219C179.679 14.8948 179.759 14.9313 179.869 14.9313C179.942 14.9313 180.011 14.913 180.077 14.8766C180.15 14.8401 180.233 14.7854 180.328 14.7125L180.438 14.8985C180.284 15.0224 180.128 15.1208 179.967 15.1938C179.814 15.2667 179.617 15.3031 179.377 15.3031C179.143 15.3031 178.954 15.2667 178.808 15.1938C178.662 15.1208 178.553 15.0151 178.48 14.8766C178.414 14.738 178.381 14.5667 178.381 14.3625C178.192 14.6688 177.966 14.9021 177.703 15.0625C177.441 15.2229 177.135 15.3031 176.785 15.3031ZM177.309 14.7781C177.514 14.7781 177.703 14.7198 177.878 14.6031C178.061 14.4865 178.228 14.3115 178.381 14.0782V11.9016C178.301 12.0183 178.184 12.1204 178.031 12.2079C177.878 12.2881 177.714 12.3719 177.539 12.4594C177.364 12.5469 177.196 12.649 177.036 12.7657C176.883 12.8751 176.755 13.0172 176.653 13.1922C176.551 13.3672 176.5 13.5896 176.5 13.8594C176.5 14.1438 176.573 14.3698 176.719 14.5375C176.865 14.6979 177.062 14.7781 177.309 14.7781Z" fill="black"/>
<path d="M186.944 9.59387V9.82355C186.66 9.82355 186.455 9.87824 186.331 9.98761C186.215 10.097 186.156 10.3048 186.156 10.611V14.2094C186.156 14.5156 186.218 14.7235 186.342 14.8328C186.466 14.9422 186.714 14.9969 187.086 14.9969C187.057 15.2521 187.035 15.5 187.021 15.7406C187.013 15.9812 187.01 16.1635 187.01 16.2875C187.01 16.4187 187.013 16.5427 187.021 16.6594C187.028 16.7833 187.035 16.8854 187.042 16.9656H186.791C186.74 16.5354 186.667 16.1891 186.572 15.9266C186.477 15.6641 186.328 15.4745 186.124 15.3578C185.919 15.2484 185.624 15.1938 185.238 15.1938C185.063 15.1938 184.906 15.1974 184.767 15.2047C184.629 15.2047 184.494 15.2083 184.363 15.2156C184.232 15.2229 184.082 15.2266 183.914 15.2266C183.608 15.2266 183.32 15.2193 183.05 15.2047C182.781 15.1901 182.478 15.1828 182.142 15.1828C181.895 15.1828 181.636 15.1901 181.366 15.2047C181.096 15.212 180.896 15.2193 180.764 15.2266V14.9969C181.049 14.9969 181.249 14.9422 181.366 14.8328C181.49 14.7235 181.552 14.5156 181.552 14.2094V10.611C181.552 10.3048 181.49 10.097 181.366 9.98761C181.249 9.87824 181.049 9.82355 180.764 9.82355V9.59387C180.896 9.60116 181.093 9.6121 181.355 9.62668C181.618 9.63397 181.873 9.63762 182.121 9.63762C182.376 9.63762 182.624 9.63397 182.864 9.62668C183.112 9.6121 183.295 9.60116 183.411 9.59387V9.82355C183.171 9.82355 182.996 9.87824 182.886 9.98761C182.784 10.097 182.733 10.3048 182.733 10.611V14.2094C182.733 14.5156 182.784 14.7235 182.886 14.8328C182.996 14.9422 183.171 14.9969 183.411 14.9969H184.297C184.545 14.9969 184.72 14.9422 184.822 14.8328C184.924 14.7235 184.975 14.5156 184.975 14.2094V10.611C184.975 10.3048 184.924 10.097 184.822 9.98761C184.72 9.87824 184.545 9.82355 184.297 9.82355V9.59387C184.421 9.60116 184.6 9.6121 184.833 9.62668C185.074 9.63397 185.318 9.63762 185.566 9.63762C185.821 9.63762 186.08 9.63397 186.342 9.62668C186.612 9.6121 186.813 9.60116 186.944 9.59387Z" fill="black"/>
<path d="M193.965 9.59387V9.82355C193.681 9.82355 193.477 9.87824 193.353 9.98761C193.236 10.097 193.178 10.3048 193.178 10.611V14.2094C193.178 14.5156 193.236 14.7235 193.353 14.8328C193.477 14.9422 193.681 14.9969 193.965 14.9969V15.2266C193.841 15.2193 193.648 15.212 193.386 15.2047C193.123 15.1901 192.864 15.1828 192.609 15.1828C192.361 15.1828 192.113 15.1901 191.865 15.2047C191.625 15.212 191.443 15.2193 191.319 15.2266V14.9969C191.567 14.9969 191.742 14.9422 191.844 14.8328C191.946 14.7235 191.997 14.5156 191.997 14.2094V10.611C191.997 10.3048 191.946 10.097 191.844 9.98761C191.742 9.87824 191.567 9.82355 191.319 9.82355V9.59387C191.443 9.60116 191.621 9.6121 191.855 9.62668C192.095 9.63397 192.339 9.63762 192.587 9.63762C192.843 9.63762 193.101 9.63397 193.364 9.62668C193.634 9.6121 193.834 9.60116 193.965 9.59387ZM190.258 9.59387V9.82355C190.017 9.82355 189.842 9.87824 189.733 9.98761C189.631 10.097 189.58 10.3048 189.58 10.611V14.2094C189.58 14.5156 189.631 14.7235 189.733 14.8328C189.842 14.9422 190.017 14.9969 190.258 14.9969V15.2266C190.141 15.2193 189.962 15.212 189.722 15.2047C189.488 15.1901 189.244 15.1828 188.989 15.1828C188.741 15.1828 188.482 15.1901 188.212 15.2047C187.943 15.212 187.742 15.2193 187.611 15.2266V14.9969C187.895 14.9969 188.096 14.9422 188.212 14.8328C188.336 14.7235 188.398 14.5156 188.398 14.2094V10.611C188.398 10.3048 188.336 10.097 188.212 9.98761C188.096 9.87824 187.895 9.82355 187.611 9.82355V9.59387C187.742 9.60116 187.939 9.6121 188.201 9.62668C188.464 9.63397 188.719 9.63762 188.967 9.63762C189.222 9.63762 189.47 9.63397 189.711 9.62668C189.959 9.6121 190.141 9.60116 190.258 9.59387ZM192.117 10.3267L192.292 10.447L189.426 14.6906L189.241 14.5594L192.117 10.3267Z" fill="black"/>
<path d="M200 9.59387V9.82355C199.73 9.82355 199.533 9.87824 199.409 9.98761C199.293 10.097 199.234 10.3048 199.234 10.611V14.2094C199.234 14.5156 199.285 14.7235 199.388 14.8328C199.497 14.9422 199.672 14.9969 199.913 14.9969V15.2266C199.796 15.2193 199.617 15.212 199.377 15.2047C199.143 15.1901 198.899 15.1828 198.644 15.1828C198.396 15.1828 198.141 15.1901 197.878 15.2047C197.616 15.212 197.419 15.2193 197.288 15.2266V14.9969C197.565 14.9969 197.762 14.9422 197.878 14.8328C197.995 14.7235 198.053 14.5156 198.053 14.2094V10.5345C198.053 10.272 198.002 10.0897 197.9 9.98761C197.798 9.87824 197.616 9.82355 197.353 9.82355C197.032 9.82355 196.788 9.88553 196.62 10.0095C196.453 10.1262 196.34 10.2793 196.281 10.4689C196.223 10.6584 196.194 10.8662 196.194 11.0923C196.194 11.5662 196.303 11.9199 196.522 12.1532C196.748 12.3865 197.142 12.5068 197.703 12.5141C197.871 12.5214 198.039 12.5251 198.206 12.5251C198.381 12.5251 198.549 12.5251 198.709 12.5251L198.731 12.7329C198.374 12.7329 198.06 12.7365 197.791 12.7438C197.528 12.7511 197.317 12.7547 197.156 12.7547C196.697 12.7547 196.325 12.711 196.041 12.6235C195.756 12.536 195.538 12.4157 195.384 12.2626C195.231 12.1094 195.126 11.9417 195.067 11.7595C195.016 11.5772 194.991 11.3912 194.991 11.2017C194.991 10.8881 195.056 10.611 195.188 10.3704C195.319 10.1298 195.545 9.94022 195.866 9.80168C196.194 9.66314 196.639 9.59387 197.2 9.59387C197.419 9.59387 197.648 9.60116 197.889 9.61575C198.137 9.63033 198.396 9.63762 198.666 9.63762C198.914 9.63762 199.165 9.63397 199.42 9.62668C199.683 9.6121 199.876 9.60116 200 9.59387ZM197.747 12.6344V12.7438C197.557 12.7511 197.368 12.7693 197.178 12.7985C196.996 12.8204 196.835 12.8969 196.697 13.0282C196.588 13.1303 196.5 13.2652 196.434 13.4329C196.376 13.6006 196.325 13.7829 196.281 13.9797C196.238 14.1693 196.179 14.3625 196.106 14.5594C196.012 14.8073 195.877 14.986 195.702 15.0953C195.527 15.2047 195.242 15.2594 194.849 15.2594C194.754 15.2594 194.652 15.2557 194.542 15.2484C194.433 15.2412 194.316 15.2339 194.192 15.2266V14.9969C194.396 14.975 194.55 14.9458 194.652 14.9094C194.754 14.8656 194.827 14.8037 194.87 14.7235C194.921 14.636 194.973 14.5229 195.024 14.3844C195.14 14.0854 195.231 13.8521 195.297 13.6844C195.37 13.5094 195.443 13.3745 195.516 13.2797C195.589 13.1777 195.68 13.0902 195.789 13.0172C195.869 12.9589 195.964 12.9079 196.074 12.8641C196.183 12.8131 196.314 12.7693 196.467 12.7329C196.62 12.6964 196.803 12.6709 197.014 12.6563C197.226 12.6344 197.47 12.6271 197.747 12.6344Z" fill="black"/>
<path d="M80.9754 51.5304H83.5946V62.6215H80.9754V51.5304Z" fill="#A60064"/>
<path d="M85.9434 51.5304H88.5962L93.8681 59.101V51.5304H96.2018V62.6215H93.5491L88.2772 54.9312V62.6215H85.9434V51.5304Z" fill="#A60064"/>
<path d="M98.5519 51.5304H106.863V53.4273H101.171V55.9737H106.309V57.8706H101.171V60.7245H107.031V62.6215H98.5519V51.5304Z" fill="#A60064"/>
<path d="M111.805 56.9648L107.96 51.5304H110.982L113.316 55.2217L115.633 51.5304H118.655L114.81 56.9648L118.84 62.6215H115.801L113.316 58.6909L110.814 62.6215H107.792L111.805 56.9648Z" fill="#A60064"/>
<path d="M120.162 51.5304H124.527C125.59 51.5304 126.43 51.6044 127.046 51.7525C127.672 51.9007 128.126 52.1627 128.405 52.5387C128.696 52.9032 128.842 53.4159 128.842 54.0767V56.1787C128.842 56.9079 128.685 57.4775 128.372 57.8877C128.07 58.2978 127.583 58.5883 126.911 58.7592C126.251 58.9301 125.355 59.0156 124.225 59.0156H122.781V62.6215H120.162V51.5304ZM124.443 57.187C125.126 57.187 125.607 57.1073 125.887 56.9478C126.167 56.7769 126.307 56.492 126.307 56.0933V54.316C126.307 53.9514 126.172 53.7121 125.904 53.5982C125.646 53.4843 125.148 53.4273 124.41 53.4273H122.781V57.187H124.443Z" fill="#A60064"/>
<path d="M130.688 51.5304H138.999V53.4273H133.307V55.9737H138.445V57.8706H133.307V60.7245H139.167V62.6215H130.688V51.5304Z" fill="#A60064"/>
<path d="M140.936 51.5304H145.838C147.293 51.5304 148.345 51.7127 148.994 52.0772C149.644 52.4304 149.968 53.0286 149.968 53.8716V55.8198C149.968 56.4692 149.739 56.9819 149.28 57.3579C148.832 57.7225 148.233 57.956 147.483 58.0586L150.64 62.6215H147.618L144.764 58.2636H143.555V62.6215H140.936V51.5304ZM145.804 56.5034C146.42 56.5034 146.84 56.4237 147.064 56.2642C147.288 56.0933 147.399 55.7686 147.399 55.2901V54.504C147.399 54.0938 147.276 53.8147 147.03 53.6666C146.795 53.5071 146.387 53.4273 145.804 53.4273H143.555V56.5034H145.804Z" fill="#A60064"/>
<path d="M154.669 53.4273H151.311V51.5304H160.629V53.4273H157.288V62.6215H154.669V53.4273Z" fill="#A60064"/>
<path d="M162.136 51.5304H164.755V62.6215H162.136V51.5304Z" fill="#A60064"/>
<path d="M166.6 60.998L172.275 53.4273H166.768V51.5304H175.498V53.1368L169.823 60.7074H175.599V62.6215H166.6V60.998Z" fill="#A60064"/>
<path d="M180.272 51.5304H183.462L187.39 62.6215H184.738L183.764 59.6992H179.785L178.828 62.6215H176.242L180.272 51.5304ZM183.193 57.9219L181.816 53.752H181.749L180.372 57.9219H183.193Z" fill="#A60064"/>
<path fill-rule="evenodd" clip-rule="evenodd" d="M80.9827 41.4342C82.3121 41.6274 82.8818 45.8026 79.4634 46.2067C80.4129 46.804 80.7928 47.7995 81.7423 47.8054L83.0717 47.4013C83.4515 47.2022 84.4011 47.009 84.591 46.0076C84.591 45.689 84.7126 44.8606 84.8585 43.6244L84.9708 42.6229C84.7809 40.2337 82.2488 39.7751 81.7423 39.8414H77.5642C73.766 40.0007 72.6898 44.6862 72.6265 47.009V49.3982H66.5493C63.2068 49.7168 61.6116 51.9806 61.6116 53.7602V57.3622C61.8015 60.5419 65.7896 60.946 66.5493 60.9401C66.7392 60.9386 66.5493 60.946 69.5879 60.946C73.3862 60.7469 74.8205 56.3398 74.9055 56.1617C75.0954 55.7635 75.222 52.982 75.2853 51.3892H79.4634L81.7423 50.991C82.8818 49.9896 82.0509 50.7677 84.2409 48.5059C82.4159 49.6368 78.064 49.5152 75.6651 49.3982V46.6049C75.6651 46.4722 75.6651 45.6094 76.0449 44.6198C76.4987 43.4377 76.9945 41.6274 79.0835 41.4342H80.9827ZM64.6502 53.7784C64.6502 50.991 67.55 50.991 68.4428 50.991H72.2467C72.2467 53.5734 72.2467 53.3743 72.0568 54.9671C72.0568 55.0998 71.8669 56.1617 71.6769 56.964C71.1072 58.3518 69.9677 59.1482 68.8283 59.3473L66.9291 59.3532C64.8401 58.75 64.7135 57.6277 64.6502 56.964V53.7784Z" fill="#A60064"/>
</svg>
